# xmcd CD database file
#
# Track frame offsets:
#	150
#	35680
#	74780
#	107807
#	136047
#	169330
#	210587
#	251005
#
# Disc length: 3613 seconds
#
# Revision: 0
# Processed by: cddbd v1.5.1PL0 Copyright (c) Steve Scherf et al.
# Submitted via: CDex 1.51
#
DISCID=780e1b08
DTITLE=Satoru Shionoya - DUET with Makoto Ozone
DYEAR=2005
DGENRE=Jazz
TTITLE0=Bienvenidos Al Mundo
TTITLE1=Do You Still Care?
TTITLE2=Valse
TTITLE3=Akogare No Rio De Janeiro (Makoto Ozone Solo)
TTITLE4=Home (Satoru Shionoya Solo)
TTITLE5=Lazy Uncle
TTITLE6=Spanish Waltz
TTITLE7=Misty
EXTD=YEAR: 2005
EXTT0=
EXTT1=
EXTT2=
EXTT3=
EXTT4=
EXTT5=
EXTT6=
EXTT7=
PLAYORDER=
